<svg width="24" height="25" viewBox="0 0 24 25" fill="none" xmlns="http://www.w3.org/2000/svg">
<path fill-rule="evenodd" clip-rule="evenodd" d="M12 2.50001C13.5527 2.49845 15.0844 2.85922 16.4732 3.55362C17.862 4.24801 19.0696 5.25689 20 6.5C21.256 8.172 22 10.25 22 12.5C22.0034 14.6639 21.3021 16.7701 20.002 18.5H20C19.0685 19.7419 17.8607 20.75 16.4721 21.4442C15.0836 22.1385 13.5524 22.5 12 22.5C10.4477 22.5002 8.91669 22.1391 7.52815 21.4451C6.13961 20.7512 4.93168 19.7436 4 18.502V18.5C2.88573 17.0143 2.20719 15.2477 2.04041 13.398C1.87363 11.5484 2.2252 9.68892 3.05573 8.02786C3.88626 6.36681 5.16293 4.96984 6.74269 3.99349C8.32244 3.01715 10.1429 2.50001 12 2.50001ZM13.896 18.5H10.104C10.658 19.752 11.35 20.5 12 20.5C12.65 20.5 13.34 19.752 13.896 18.5ZM8 18.5L6.71 18.502C7.26066 18.9873 7.87 19.3913 8.53799 19.714C8.33646 19.3202 8.15685 18.9156 8 18.502M17.29 18.504H16C15.8431 18.9176 15.6635 19.3222 15.462 19.716C16.13 19.3933 16.7393 18.9893 17.29 18.504ZM7.024 13.504H4.062C4.19549 14.5613 4.53888 15.5812 5.072 16.504H7.416C7.20137 15.5168 7.07024 14.5132 7.024 13.504ZM14.974 13.504H9.02599C9.08599 14.592 9.23399 15.604 9.44599 16.504H14.552C14.766 15.604 14.916 14.592 14.972 13.504M19.936 13.504H16.974C16.9277 14.5132 16.7966 15.5168 16.582 16.504H18.926C19.4591 15.5812 19.8025 14.5613 19.936 13.504ZM7.416 8.5H5.07C4.548 9.40399 4.196 10.42 4.062 11.5H7.024C7.07024 10.4908 7.20137 9.48722 7.416 8.5ZM14.552 8.5H9.44799C9.21806 9.48465 9.07749 10.4881 9.02799 11.498H14.974C14.9235 10.4875 14.783 9.4835 14.554 8.498M18.93 8.5H16.584C16.788 9.43399 16.924 10.444 16.976 11.5H19.938C19.8051 10.4428 19.4624 9.42289 18.93 8.5ZM8.53799 5.286L8.28999 5.41C7.71666 5.71133 7.19 6.07467 6.71 6.5H8C8.15678 6.08571 8.33639 5.68043 8.53799 5.286ZM12 4.5C11.348 4.5 10.658 5.25 10.104 6.5H13.896C13.342 5.252 12.652 4.5 12 4.5ZM15.46 5.286L15.536 5.428C15.7026 5.764 15.8573 6.12133 16 6.5H17.292C16.7407 6.01313 16.1249 5.60462 15.462 5.286" fill="#2B2839"/>
</svg>
